<mxfile host="65bd71144e">
    <diagram id="vIq7jO7axiMm3paLur8q" name="Page-1">
        <mxGraphModel dx="591" dy="253" grid="1" gridSize="10" guides="1" tooltips="1" connect="1" arrows="1" fold="1" page="1" pageScale="1" pageWidth="850" pageHeight="1100" math="0" shadow="0">
            <root>
                <mxCell id="0"/>
                <mxCell id="1" parent="0"/>
                <mxCell id="13" style="edgeStyle=none;html=1;exitX=1;exitY=0.5;exitDx=0;exitDy=0;entryX=0;entryY=0.25;entryDx=0;entryDy=0;" parent="1" source="2" target="9" edge="1">
                    <mxGeometry relative="1" as="geometry">
                        <Array as="points">
                            <mxPoint x="400" y="340"/>
                            <mxPoint x="400" y="420"/>
                        </Array>
                    </mxGeometry>
                </mxCell>
                <mxCell id="2" value="" style="whiteSpace=wrap;html=1;aspect=fixed;" parent="1" vertex="1">
                    <mxGeometry x="270" y="300" width="80" height="80" as="geometry"/>
                </mxCell>
                <mxCell id="3" value="Modern House" style="text;html=1;strokeColor=none;fillColor=none;align=center;verticalAlign=middle;whiteSpace=wrap;rounded=0;" parent="1" vertex="1">
                    <mxGeometry x="280" y="325" width="60" height="30" as="geometry"/>
                </mxCell>
                <mxCell id="12" style="edgeStyle=none;html=1;exitX=1;exitY=0.5;exitDx=0;exitDy=0;entryX=0;entryY=0.5;entryDx=0;entryDy=0;" parent="1" source="4" target="9" edge="1">
                    <mxGeometry relative="1" as="geometry"/>
                </mxCell>
                <mxCell id="4" value="" style="whiteSpace=wrap;html=1;aspect=fixed;" parent="1" vertex="1">
                    <mxGeometry x="270" y="400" width="80" height="80" as="geometry"/>
                </mxCell>
                <mxCell id="5" value="Victorian&lt;br&gt;House" style="text;html=1;strokeColor=none;fillColor=none;align=center;verticalAlign=middle;whiteSpace=wrap;rounded=0;" parent="1" vertex="1">
                    <mxGeometry x="280" y="425" width="60" height="30" as="geometry"/>
                </mxCell>
                <mxCell id="11" style="edgeStyle=none;html=1;exitX=1;exitY=0.5;exitDx=0;exitDy=0;entryX=0;entryY=0.75;entryDx=0;entryDy=0;" parent="1" source="6" target="9" edge="1">
                    <mxGeometry relative="1" as="geometry">
                        <mxPoint x="400" y="470" as="targetPoint"/>
                        <Array as="points">
                            <mxPoint x="400" y="540"/>
                            <mxPoint x="400" y="460"/>
                        </Array>
                    </mxGeometry>
                </mxCell>
                <mxCell id="6" value="" style="whiteSpace=wrap;html=1;aspect=fixed;" parent="1" vertex="1">
                    <mxGeometry x="270" y="500" width="80" height="80" as="geometry"/>
                </mxCell>
                <mxCell id="7" value="Contemporary&lt;br&gt;House" style="text;html=1;strokeColor=none;fillColor=none;align=center;verticalAlign=middle;whiteSpace=wrap;rounded=0;" parent="1" vertex="1">
                    <mxGeometry x="280" y="525" width="60" height="30" as="geometry"/>
                </mxCell>
                <mxCell id="16" style="edgeStyle=none;html=1;exitX=1;exitY=0.5;exitDx=0;exitDy=0;fontSize=10;" parent="1" source="9" target="17" edge="1">
                    <mxGeometry relative="1" as="geometry">
                        <mxPoint x="620" y="440" as="targetPoint"/>
                    </mxGeometry>
                </mxCell>
                <mxCell id="21" style="edgeStyle=none;html=1;exitX=0.5;exitY=0;exitDx=0;exitDy=0;entryX=0.5;entryY=1;entryDx=0;entryDy=0;fontSize=10;" parent="1" source="18" target="9" edge="1">
                    <mxGeometry relative="1" as="geometry"/>
                </mxCell>
                <mxCell id="9" value="" style="whiteSpace=wrap;html=1;aspect=fixed;" parent="1" vertex="1">
                    <mxGeometry x="460" y="400" width="80" height="80" as="geometry"/>
                </mxCell>
                <mxCell id="10" value="House&lt;br&gt;Blueprint&lt;br&gt;" style="text;html=1;strokeColor=none;fillColor=none;align=center;verticalAlign=middle;whiteSpace=wrap;rounded=0;" parent="1" vertex="1">
                    <mxGeometry x="470" y="425" width="60" height="30" as="geometry"/>
                </mxCell>
                <mxCell id="14" value="&lt;h1&gt;&lt;font style=&quot;font-size: 18px;&quot;&gt;Types of Houses&lt;/font&gt;&lt;/h1&gt;&lt;div style=&quot;font-size: 11px;&quot;&gt;&lt;font style=&quot;font-size: 11px;&quot;&gt;each of these houses contain the information that makes their house unique like roof color, number of windows, and wall material.&lt;/font&gt;&lt;/div&gt;&lt;div style=&quot;font-size: 11px;&quot;&gt;&lt;br&gt;&lt;/div&gt;" style="text;html=1;strokeColor=none;fillColor=none;spacing=5;spacingTop=-20;whiteSpace=wrap;overflow=hidden;rounded=0;" parent="1" vertex="1">
                    <mxGeometry x="220" y="180" width="180" height="130" as="geometry"/>
                </mxCell>
                <mxCell id="15" value="&lt;h1&gt;&lt;span style=&quot;background-color: initial;&quot;&gt;&lt;font style=&quot;font-size: 20px;&quot;&gt;The Blueprint&lt;/font&gt;&lt;/span&gt;&lt;/h1&gt;&lt;div style=&quot;font-size: 10px;&quot;&gt;&lt;font style=&quot;font-size: 10px;&quot;&gt;this will use the blue print that we created earlier meaning that as long as each different house fits into our blueprint, the construction company can use the same blue print and we don't have to write any new code for each of the houses to be built, as long as each house has some way of informing the construction company what makes their house unique (This is done through the parameters in the constructor).&lt;/font&gt;&lt;/div&gt;&lt;div style=&quot;font-size: 10px;&quot;&gt;&lt;font style=&quot;font-size: 10px;&quot;&gt;&lt;br&gt;&lt;/font&gt;&lt;/div&gt;&lt;div style=&quot;font-size: 10px;&quot;&gt;&lt;span style=&quot;background-color: initial; font-size: 10px;&quot;&gt;&lt;font style=&quot;font-size: 20px;&quot;&gt;&lt;br&gt;&lt;/font&gt;&lt;/span&gt;&lt;/div&gt;" style="text;html=1;strokeColor=none;fillColor=none;spacing=5;spacingTop=-20;whiteSpace=wrap;overflow=hidden;rounded=0;fontSize=11;" parent="1" vertex="1">
                    <mxGeometry x="440" y="220" width="190" height="180" as="geometry"/>
                </mxCell>
                <mxCell id="23" style="edgeStyle=none;html=1;exitX=0.5;exitY=1;exitDx=0;exitDy=0;fontSize=10;" parent="1" source="17" edge="1">
                    <mxGeometry relative="1" as="geometry">
                        <mxPoint x="660" y="520" as="targetPoint"/>
                    </mxGeometry>
                </mxCell>
                <mxCell id="17" value="Constructor&lt;br&gt;(construction company)" style="whiteSpace=wrap;html=1;aspect=fixed;fontSize=10;" parent="1" vertex="1">
                    <mxGeometry x="620" y="400" width="80" height="80" as="geometry"/>
                </mxCell>
                <mxCell id="18" value="House Attributes" style="swimlane;whiteSpace=wrap;html=1;fontSize=10;" parent="1" vertex="1">
                    <mxGeometry x="440" y="510" width="120" height="100" as="geometry">
                        <mxRectangle x="440" y="510" width="120" height="30" as="alternateBounds"/>
                    </mxGeometry>
                </mxCell>
                <mxCell id="20" value="String roofColor;&lt;br&gt;int numberOfWindows;&lt;br&gt;String wallMaterial;" style="text;html=1;align=center;verticalAlign=middle;resizable=0;points=[];autosize=1;strokeColor=none;fillColor=none;fontSize=10;" parent="18" vertex="1">
                    <mxGeometry y="30" width="120" height="50" as="geometry"/>
                </mxCell>
                <mxCell id="24" value="Fully built house&lt;br&gt;" style="whiteSpace=wrap;html=1;aspect=fixed;fontSize=10;" parent="1" vertex="1">
                    <mxGeometry x="620" y="525" width="80" height="80" as="geometry"/>
                </mxCell>
                <mxCell id="28" value="the house begins assembly" style="text;html=1;align=center;verticalAlign=middle;resizable=0;points=[];autosize=1;strokeColor=none;fillColor=none;fontSize=10;" parent="1" vertex="1">
                    <mxGeometry x="660" y="480" width="140" height="30" as="geometry"/>
                </mxCell>
            </root>
        </mxGraphModel>
    </diagram>
</mxfile>